<svg xmlns="http://www.w3.org/2000/svg" version="1.1" xmlns:xlink="http://www.w3.org/1999/xlink" width="512" height="512" x="0" y="0" viewBox="0 0 512 512" style="enable-background:new 0 0 512 512" xml:space="preserve" class=""><g><g fill-rule="evenodd" clip-rule="evenodd"><path fill="#b4d2d7" d="M120.792 487.442V102.859a8 8 0 0 1 8-8h254.415a8 8 0 0 1 8 8v384.583h-16V110.859H136.792v376.583z" opacity="1" data-original="#b4d2d7" class=""></path><path fill="#ffda2d" d="M240.337 8.999h31.326v15.718a79.241 79.241 0 0 1 28.511 11.817l11.12-11.119 22.151 22.151-11.12 11.119a79.241 79.241 0 0 1 11.817 28.511h15.718v31.326h-15.718a79.246 79.246 0 0 1-11.817 28.512l11.119 11.119-22.151 22.15-11.118-11.119a79.236 79.236 0 0 1-28.512 11.817v15.717h-31.326v-15.717a79.236 79.236 0 0 1-28.512-11.817l-11.119 11.119-22.151-22.151 11.118-11.118a79.236 79.236 0 0 1-11.817-28.512H162.14V87.197h15.717a79.253 79.253 0 0 1 11.817-28.512l-11.119-11.119 22.151-22.151 11.119 11.119a79.253 79.253 0 0 1 28.512-11.817z" opacity="1" data-original="#ffda2d" class=""></path><path fill="#ffc700" d="M261.02 24.708c12.956 2.582 24.777 8.305 34.64 16.341l4.514-4.514a79.223 79.223 0 0 0-28.511-11.817V8.999H261.02zm50.669 33.97a79.262 79.262 0 0 1 11.82 28.518h10.633a79.241 79.241 0 0 0-11.817-28.511l11.119-11.119-22.15-22.151-5.56 5.56 17.067 16.591zm11.82 59.844a79.257 79.257 0 0 1-11.82 28.519l11.112 11.113-16.829 16.829 5.322 5.321 22.151-22.15-11.119-11.119a79.226 79.226 0 0 0 11.816-28.512h-10.633zM295.66 164.67a79.376 79.376 0 0 1-34.639 16.341v15.709h10.643v-15.717a79.253 79.253 0 0 0 28.512-11.817zm43.557-46.148h10.643V87.197h-10.643z" opacity="1" data-original="#ffc700" class=""></path><circle cx="256" cy="102.859" r="47.565" fill="#eff4f7" transform="translate(-2.174 5.586)" opacity="1" data-original="#eff4f7"></circle><path fill="#e2e3e3" d="M256 55.294c11.78 0 22.557 4.284 30.865 11.377a47.36 47.36 0 0 0-22.482-5.64c-26.27 0-47.565 21.295-47.565 47.565 0 14.49 6.481 27.464 16.699 36.188-14.931-8.023-25.083-23.788-25.083-41.925.001-26.269 21.297-47.565 47.566-47.565z" opacity="1" data-original="#e2e3e3"></path><path fill="#64b5f6" d="M233.324 298.852H24.261l19.028-49.621c3.817-9.955 12.906-16.204 23.568-16.204h123.87c10.662 0 19.751 6.249 23.568 16.204z" opacity="1" data-original="#64b5f6"></path><path fill="#42a5f5" d="M233.324 298.852h-12.14l-19.028-49.621c-3.817-9.955-12.906-16.204-23.568-16.204h12.14c10.662 0 19.751 6.249 23.568 16.204z" opacity="1" data-original="#42a5f5"></path><path fill="#eff4f7" d="M78.68 233.027h100.225l-4.867 21.308H83.547z" opacity="1" data-original="#eff4f7"></path><path fill="#e2e3e3" d="M78.68 233.027h9.645l3.111 13.62h84.358l-1.756 7.688H83.547z" opacity="1" data-original="#e2e3e3"></path><path fill="#64b5f6" d="M233.324 296.681H24.261L46.79 480.824c1.558 12.73 12.23 22.177 25.055 22.177H185.74c12.825 0 23.497-9.446 25.055-22.177z" opacity="1" data-original="#64b5f6"></path><path fill="#42a5f5" d="M46.79 480.824c1.557 12.73 12.23 22.177 25.055 22.177H185.74c12.825 0 23.497-9.446 25.055-22.177z" opacity="1" data-original="#42a5f5"></path><path fill="#42a5f5" d="M233.324 296.681H219.02l-22.529 184.143c-1.558 12.73-12.23 22.177-25.055 22.177h14.304c12.825 0 23.497-9.446 25.055-22.177z" opacity="1" data-original="#42a5f5"></path><path fill="#2d90f1" d="M171.436 503.001h14.305c12.825 0 23.497-9.446 25.055-22.177h-14.304c-1.559 12.73-12.231 22.177-25.056 22.177z" opacity="1" data-original="#2d90f1"></path><path fill="#eff4f7" d="M189.377 434.876c-.31 4.401-4.13 7.717-8.531 7.406s-7.717-4.13-7.406-8.531l5.329-72.6a7.988 7.988 0 0 1 8.531-7.406 7.988 7.988 0 0 1 7.406 8.531zm-105.232-1.124a7.989 7.989 0 0 1-15.937 1.125l-5.329-72.6a7.989 7.989 0 0 1 15.937-1.125zm35.078.375a7.971 7.971 0 0 1-15.937.375l-1.777-72.6a7.97 7.97 0 1 1 15.937-.375zm35.077.374a7.97 7.97 0 0 1-8.156 7.781 7.97 7.97 0 0 1-7.781-8.156l1.776-72.6a7.97 7.97 0 0 1 8.156-7.781 7.97 7.97 0 0 1 7.781 8.156z" opacity="1" data-original="#eff4f7"></path><path fill="#b4d2d7" d="M234.318 286.671H23.267C15.42 286.671 9 293.09 9 300.937s6.42 14.266 14.267 14.266h211.051c7.846 0 14.267-6.419 14.267-14.266 0-7.846-6.42-14.266-14.267-14.266z" opacity="1" data-original="#b4d2d7" class=""></path><path fill="#a8c6cd" d="M9.507 304.696c1.66 6.038 7.213 10.507 13.76 10.507h211.051c7.846 0 14.267-6.419 14.267-14.266 0-6.546-4.469-12.098-10.507-13.759.33 1.199.507 2.459.507 3.759 0 7.847-6.421 14.266-14.267 14.266H13.267c-1.3 0-2.561-.177-3.76-.507z" opacity="1" data-original="#a8c6cd"></path><path fill="#72d561" d="M487.739 298.852H278.676l19.028-49.621c3.817-9.955 12.906-16.204 23.568-16.204h123.87c10.662 0 19.751 6.249 23.568 16.204z" opacity="1" data-original="#72d561"></path><path fill="#3cbe52" d="M487.739 298.852h-12.14l-19.028-49.621c-3.817-9.955-12.906-16.204-23.568-16.204h12.14c10.662 0 19.751 6.249 23.568 16.204z" opacity="1" data-original="#3cbe52"></path><path fill="#eff4f7" d="M333.095 233.027H433.32l-4.867 21.308h-90.491z" opacity="1" data-original="#eff4f7"></path><path fill="#e2e3e3" d="M333.095 233.027h9.645l3.111 13.62h84.358l-1.756 7.688h-90.491z" opacity="1" data-original="#e2e3e3"></path><path fill="#72d561" d="M487.739 296.681H278.676l22.529 184.143c1.558 12.73 12.23 22.177 25.055 22.177h113.895c12.825 0 23.497-9.446 25.055-22.177z" opacity="1" data-original="#72d561"></path><path fill="#3cbe52" d="M301.205 480.824c1.557 12.73 12.23 22.177 25.055 22.177h113.895c12.825 0 23.497-9.446 25.055-22.177z" opacity="1" data-original="#3cbe52"></path><path fill="#3cbe52" d="M487.739 296.681h-14.304l-22.529 184.143c-1.558 12.73-12.23 22.177-25.055 22.177h14.304c12.825 0 23.497-9.446 25.055-22.177z" opacity="1" data-original="#3cbe52"></path><path fill="#30aa44" d="M425.851 503.001h14.305c12.825 0 23.497-9.446 25.055-22.177h-14.304c-1.559 12.73-12.231 22.177-25.056 22.177z" opacity="1" data-original="#30aa44"></path><path fill="#eff4f7" d="M443.792 434.876a7.988 7.988 0 0 1-8.531 7.406 7.988 7.988 0 0 1-7.406-8.531l5.329-72.6a7.988 7.988 0 0 1 8.531-7.406 7.988 7.988 0 0 1 7.406 8.531zm-105.232-1.124a7.988 7.988 0 1 1-15.937 1.125l-5.329-72.6a7.989 7.989 0 0 1 15.937-1.125zm35.078.375a7.971 7.971 0 0 1-15.937.375l-1.777-72.6a7.97 7.97 0 1 1 15.937-.375zm35.077.374a7.97 7.97 0 0 1-8.156 7.781 7.97 7.97 0 0 1-7.781-8.156l1.777-72.6a7.97 7.97 0 0 1 8.156-7.781 7.97 7.97 0 0 1 7.781 8.156z" opacity="1" data-original="#eff4f7"></path><path fill="#b4d2d7" d="M488.733 286.671H277.682c-7.847 0-14.267 6.419-14.267 14.266s6.42 14.266 14.267 14.266h211.051c7.847 0 14.267-6.419 14.267-14.266 0-7.846-6.42-14.266-14.267-14.266z" opacity="1" data-original="#b4d2d7" class=""></path><path fill="#a8c6cd" d="M263.922 304.696c1.66 6.038 7.213 10.507 13.76 10.507h211.051c7.847 0 14.267-6.419 14.267-14.266 0-6.546-4.469-12.098-10.507-13.759.33 1.199.507 2.459.507 3.759 0 7.847-6.42 14.266-14.267 14.266H267.682c-1.3 0-2.561-.177-3.76-.507z" opacity="1" data-original="#a8c6cd"></path></g></g></svg>